<svg xmlns="http://www.w3.org/2000/svg" viewBox="0 14.5 352.95001220703125 42.45000076293945" data-asc="1.02" width="352.95001220703125" height="42.45000076293945"><defs/><g><g fill="#000000"><g transform="translate(0, 0)"><path d="M0 48L0 42.90L14.95 35.75Q15.95 35.30 16.85 35Q17.75 34.70 18.20 34.60Q17.70 34.50 16.78 34.17Q15.85 33.85 14.95 33.40L0 26.25L0 21.05L21.90 31.70L21.90 37.35L0 48ZM70.95 51.50Q65.70 51.50 62.85 48.63Q60 45.75 60 40.80L60 14.50L65.40 14.50L65.40 40.80Q65.40 43.55 66.78 45.15Q68.15 46.75 70.95 46.75Q73.70 46.75 75.10 45.15Q76.50 43.55 76.50 40.80L76.50 14.50L81.90 14.50L81.90 40.80Q81.90 45.75 79.05 48.63Q76.20 51.50 70.95 51.50ZM90 51L90 14.50L96.80 14.50L107.45 44.85Q107.35 43.40 107.20 41.40Q107.05 39.40 106.98 37.25Q106.90 35.10 106.90 33.35L106.90 14.50L111.90 14.50L111.90 51L105.10 51L94.50 20.65Q94.60 21.95 94.73 23.90Q94.85 25.85 94.92 27.95Q95 30.05 95 31.85L95 51L90 51ZM120.95 51L117 14.50L121.85 14.50L124.30 40.70Q124.40 41.70 124.48 42.90Q124.55 44.10 124.63 45.25Q124.70 46.40 124.70 47.25Q124.80 46.40 124.90 45.25Q125 44.10 125.13 42.90Q125.25 41.70 125.40 40.70L128.55 14.50L133.55 14.50L136.50 40.70Q136.60 41.70 136.72 42.90Q136.85 44.10 137 45.25Q137.15 46.40 137.20 47.25Q137.25 46.40 137.32 45.25Q137.40 44.10 137.50 42.90Q137.60 41.70 137.70 40.70L140.20 14.50L144.90 14.50L140.80 51L134.55 51L131.60 24.45Q131.50 23.40 131.40 22.22Q131.30 21.05 131.20 19.92Q131.10 18.80 131 18.05Q130.95 18.80 130.85 19.92Q130.75 21.05 130.65 22.22Q130.55 23.40 130.40 24.45L127.25 51L120.95 51ZM150.15 51L150.15 14.50L161.60 14.50Q165.05 14.50 167.60 15.82Q170.15 17.15 171.57 19.55Q173 21.95 173 25.20Q173 28.85 171.13 31.52Q169.25 34.20 166.05 35.30L173.50 51L167.35 51L160.70 36L155.55 36L155.55 51L150.15 51M155.55 31.25L161.60 31.25Q164.30 31.25 165.90 29.63Q167.50 28 167.50 25.30Q167.50 22.50 165.90 20.90Q164.30 19.30 161.60 19.30L155.55 19.30L155.55 31.25ZM178.10 51L187.40 14.50L194.50 14.50L203.80 51L198.35 51L196.15 41.75L185.80 41.75L183.60 51L178.10 51M186.80 37.30L195.10 37.30L192.60 26.75Q191.95 23.95 191.52 21.88Q191.10 19.80 190.95 19.05Q190.80 19.80 190.40 21.88Q190 23.95 189.30 26.70L186.80 37.30ZM210.15 51L210.15 14.50L222.10 14.50Q225.65 14.50 228.27 15.85Q230.90 17.20 232.32 19.67Q233.75 22.15 233.75 25.50Q233.75 28.80 232.30 31.30Q230.85 33.80 228.25 35.15Q225.65 36.50 222.10 36.50L215.55 36.50L215.55 51L210.15 51M215.55 31.65L222.10 31.65Q224.90 31.65 226.57 29.97Q228.25 28.30 228.25 25.50Q228.25 22.65 226.57 21Q224.90 19.35 222.10 19.35L215.55 19.35L215.55 31.65ZM240.15 51L240.15 14.50L252.10 14.50Q255.65 14.50 258.27 15.85Q260.90 17.20 262.32 19.67Q263.75 22.15 263.75 25.50Q263.75 28.80 262.30 31.30Q260.85 33.80 258.25 35.15Q255.65 36.50 252.10 36.50L245.55 36.50L245.55 51L240.15 51M245.55 31.65L252.10 31.65Q254.90 31.65 256.57 29.97Q258.25 28.30 258.25 25.50Q258.25 22.65 256.57 21Q254.90 19.35 252.10 19.35L245.55 19.35L245.55 31.65ZM270.65 51L270.65 14.50L292.10 14.50L292.10 19.30L275.95 19.30L275.95 29.65L290.35 29.65L290.35 34.40L275.95 34.40L275.95 46.20L292.10 46.20L292.10 51L270.65 51ZM300.10 51L300.10 14.50L310.30 14.50Q313.90 14.50 316.55 15.88Q319.20 17.25 320.68 19.75Q322.15 22.25 322.15 25.65L322.15 39.80Q322.15 43.15 320.68 45.70Q319.20 48.25 316.55 49.63Q313.90 51 310.30 51L300.10 51M305.50 46.10L310.30 46.10Q313.30 46.10 315.02 44.42Q316.75 42.75 316.75 39.80L316.75 25.65Q316.75 22.75 315.02 21.07Q313.30 19.40 310.30 19.40L305.50 19.40L305.50 46.10ZM328.95 56.95L328.95 52.25L352.95 52.25L352.95 56.95L328.95 56.95Z"/></g></g></g></svg>